<svg id="Layer_1" data-name="Layer 1" xmlns="http://www.w3.org/2000/svg" viewBox="0 0 241.89 213.84"><defs><style>.cls-1{fill:none;}.cls-2{font-size:39px;stroke:#000;stroke-linejoin:round;font-family:Poppins-Black, Poppins;font-weight:800;}</style></defs><path d="M171.05,43.87A67.46,67.46,0,0,0,146.4,23.31l7.21-13.6a.21.21,0,0,1,.19-.11.21.21,0,0,1,.17.1c.54.9,1.68,2.75,3.28,5l.86,1.21a29.65,29.65,0,0,0,3.16,3.47c5.77,5.68,14,10.31,18.39,10.31a4.93,4.93,0,0,0,1.33-.17l-.37.56A74.54,74.54,0,0,0,171.05,43.87Z"/><path d="M153.8,9.73a.07.07,0,0,1,.06,0c.54.91,1.69,2.77,3.29,5.05l.13.2.39.54L158,16a30.92,30.92,0,0,0,3.18,3.48c5.78,5.7,14.07,10.34,18.47,10.34a5.48,5.48,0,0,0,1.13-.11l-.26.31A72.83,72.83,0,0,0,171,43.64a67.66,67.66,0,0,0-24.46-20.38l7.14-13.49a.08.08,0,0,1,.08,0m0-.25a.33.33,0,0,0-.3.18l-7.26,13.71h0a67.43,67.43,0,0,1,24.81,20.71h0a74.2,74.2,0,0,1,10.06-14.36.18.18,0,0,0-.13-.29H181a4.65,4.65,0,0,1-1.29.16c-4.45,0-12.63-4.68-18.3-10.27a30.4,30.4,0,0,1-3.15-3.45l-.34-.48-.38-.54-.14-.19c-1.6-2.3-2.76-4.17-3.27-5a.35.35,0,0,0-.28-.15Z"/><path d="M162,17.25c7,7.9,17.64,11.37,19.64,9.69l0,0a2.12,2.12,0,0,0,.44-1.83c-1.09-6.71-12.77-11.9-17-11h0a2.52,2.52,0,0,0-.93.37,2.88,2.88,0,0,0-.48.43.22.22,0,0,0-.08.09l-.07.09h0"/><path d="M182.62,141.34a18.16,18.16,0,0,0,12.1-17.1v-12.1h-12.1Z"/><path d="M121,8.64a12.12,12.12,0,0,1,12.11,10.2,60.08,60.08,0,0,1,6,1.51,18.16,18.16,0,1,0-36.31,0,54,54,0,0,1,6-1.51A12.12,12.12,0,0,1,121,8.64Z"/><path d="M47,103.06v3h12.1V94h-3A9.07,9.07,0,0,0,47,103.06Z"/><path d="M47,124.24a18.16,18.16,0,0,0,12.1,17.1v-29.2H47Z"/><path d="M185.64,94h-3v12.1h12.1v-3A9.07,9.07,0,0,0,185.64,94Z"/><path class="cls-1" d="M121,33.46a45.39,45.39,0,0,0-44.61,37h6.17a39.34,39.34,0,0,1,76.89,0h5.64l.53,0A45.39,45.39,0,0,0,121,33.46Z"/><path class="cls-1" d="M121,39.51a39.35,39.35,0,0,1,38.45,31h5.64l.53,0a45.39,45.39,0,0,0-89.23,0h6.17A39.34,39.34,0,0,1,121,39.51Z"/><path d="M121,21.35a57.49,57.49,0,0,0-57.49,57.5V142.4a12,12,0,0,0,3.77,8.76v9.1a9,9,0,0,0,8.95,9h89.55a9,9,0,0,0,9-9v-9.1a12,12,0,0,0,3.77-8.76V78.85A57.5,57.5,0,0,0,121,21.35Zm0,12.11a45.39,45.39,0,0,1,44.62,37.06l-.53,0h-5.64a39.34,39.34,0,0,0-76.89,0H76.4A45.39,45.39,0,0,1,121,33.46Zm45.76,115.33a12,12,0,0,1-12,12H87.26a12,12,0,0,1-12-12v-47a12,12,0,0,1,12-12h67.51a12,12,0,0,1,12,12Z"/><path class="cls-1" d="M121,97.86a27.41,27.41,0,1,0,27.41,27.41A27.41,27.41,0,0,0,121,97.86Zm20.49,20.7c-.33,0-.69,0-1.08,0a6.53,6.53,0,0,1-2.9-.59,13.41,13.41,0,0,0-2.13-.65,5.14,5.14,0,0,0-5.35,2.89c-.22.39-2.12,3.89-.71,5.83a6,6,0,0,0,1.86,1.53,19.17,19.17,0,0,0,2.7,1.42l.62.24a3.79,3.79,0,0,1,1.78,1,2.78,2.78,0,0,1,.29,1.89,8.61,8.61,0,0,1-.59,2.08c-.59,1.62-1.33,3.63.4,5.61a4.92,4.92,0,0,0,1.75,1.27c-.34.38-.68.75-1,1.11A23.23,23.23,0,0,1,99,117.37a8,8,0,0,0,1.76,2.5,28.1,28.1,0,0,0,4,3.51c.2.15.51.37.55.49a3.64,3.64,0,0,1,.07,1.35,5.23,5.23,0,0,0,.46,3,8.33,8.33,0,0,0,1.44,1.85,4.54,4.54,0,0,1,1.24,1.72,5.06,5.06,0,0,1,0,1.52,6.87,6.87,0,0,0,.06,2.11,6.78,6.78,0,0,0,1.36,2.47,6.11,6.11,0,0,1,.93,1.48,5.65,5.65,0,0,1,.24,1.32,9.88,9.88,0,0,0,.22,1.38,3.16,3.16,0,0,0,2.81,2.57h.23c1.47-.13,2.49-1.52,2.65-3.62.06-.81.15-1.92.65-2.18a4,4,0,0,1,.47-.14,3,3,0,0,0,1.49-.73,2.85,2.85,0,0,0,.45-2.8,4.21,4.21,0,0,1-.13-.84c0-.63.71-1.28,1.37-1.83l3.1-2.65a3.46,3.46,0,0,0,.92-3.72,5.25,5.25,0,0,0-2.19-2.68,4.07,4.07,0,0,0-3.85-.64,5.07,5.07,0,0,0-1,.58,2,2,0,0,1-.7.39c-.17,0-.46-.22-.67-.6a5.31,5.31,0,0,1-.36-.83,8.4,8.4,0,0,0-.49-1.13c-1.1-2-2.81-2.19-4.32-2.37l-.76-.1a8.37,8.37,0,0,1-4.26-2,1,1,0,0,1-.21-.22h0a3.24,3.24,0,0,1,2.1-.76,5.09,5.09,0,0,1,.64.06,4,4,0,0,0,3.65-1l.42-.32a3,3,0,0,1,1.46-.35c1.16-.09,3.1-.25,3.39-3.13a8.78,8.78,0,0,0-.89-4.1c-.49-1.19-1-2.45-1.4-3.78a23.83,23.83,0,0,1,2.67-.38,3.54,3.54,0,0,0,.16.34,5.83,5.83,0,0,1,.47,1.32,3.89,3.89,0,0,0,2.06,3.1,2.8,2.8,0,0,0,1.21.26,3.41,3.41,0,0,0,2.64-1.29,7.37,7.37,0,0,0,1.2-3.1,22.87,22.87,0,0,1,3.36,1.13c-.29.3-.6.61-.92.92a22.44,22.44,0,0,0-2,2.13,2.54,2.54,0,0,0-.6,1.2,2.66,2.66,0,0,0,.71,2,4.06,4.06,0,0,0,2.13,1.65,2.46,2.46,0,0,0,.65.08,4.8,4.8,0,0,0,2.1-.64,3.8,3.8,0,0,1,1.19-.44,3.09,3.09,0,0,1,1.19.26,6,6,0,0,0,1.66.36,2.64,2.64,0,0,0,2.39-1.31,23,23,0,0,1,4.42,7.76C142.56,118.54,142.24,118.55,141.5,118.56Z"/><path d="M135.9,112a6,6,0,0,1-1.66-.36,3.09,3.09,0,0,0-1.19-.26,3.8,3.8,0,0,0-1.19.44,4.8,4.8,0,0,1-2.1.64,2.46,2.46,0,0,1-.65-.08A4.06,4.06,0,0,1,127,110.7a2.66,2.66,0,0,1-.71-2,2.54,2.54,0,0,1,.6-1.2,22.44,22.44,0,0,1,2-2.13c.32-.31.63-.62.92-.92a22.87,22.87,0,0,0-3.36-1.13,7.37,7.37,0,0,1-1.2,3.1,3.41,3.41,0,0,1-2.64,1.29,2.8,2.8,0,0,1-1.21-.26,3.89,3.89,0,0,1-2.06-3.1,5.83,5.83,0,0,0-.47-1.32,3.54,3.54,0,0,1-.16-.34,23.83,23.83,0,0,0-2.67.38c.41,1.33.91,2.59,1.4,3.78a8.78,8.78,0,0,1,.89,4.1c-.29,2.88-2.23,3-3.39,3.13a3,3,0,0,0-1.46.35l-.42.32a4,4,0,0,1-3.65,1,5.09,5.09,0,0,0-.64-.06,3.24,3.24,0,0,0-2.1.76h0a1,1,0,0,0,.21.22,8.37,8.37,0,0,0,4.26,2l.76.1c1.51.18,3.22.39,4.32,2.37a8.4,8.4,0,0,1,.49,1.13,5.31,5.31,0,0,0,.36.83c.21.38.5.61.67.6a2,2,0,0,0,.7-.39,5.07,5.07,0,0,1,1-.58,4.07,4.07,0,0,1,3.85.64,5.25,5.25,0,0,1,2.19,2.68,3.46,3.46,0,0,1-.92,3.72l-3.1,2.65c-.66.55-1.35,1.2-1.37,1.83a4.21,4.21,0,0,0,.13.84,2.85,2.85,0,0,1-.45,2.8,3,3,0,0,1-1.49.73,4,4,0,0,0-.47.14c-.5.26-.59,1.37-.65,2.18-.16,2.1-1.18,3.49-2.65,3.62h-.23a3.16,3.16,0,0,1-2.81-2.57,9.88,9.88,0,0,1-.22-1.38,5.65,5.65,0,0,0-.24-1.32,6.11,6.11,0,0,0-.93-1.48,6.78,6.78,0,0,1-1.36-2.47,6.87,6.87,0,0,1-.06-2.11,5.06,5.06,0,0,0,0-1.52,4.54,4.54,0,0,0-1.24-1.72,8.33,8.33,0,0,1-1.44-1.85,5.23,5.23,0,0,1-.46-3,3.64,3.64,0,0,0-.07-1.35c0-.12-.35-.34-.55-.49a28.1,28.1,0,0,1-4-3.51,8,8,0,0,1-1.76-2.5,23.23,23.23,0,0,0,38.06,24.86c.36-.36.7-.73,1-1.11a4.92,4.92,0,0,1-1.75-1.27c-1.73-2-1-4-.4-5.61a8.61,8.61,0,0,0,.59-2.08,2.78,2.78,0,0,0-.29-1.89,3.79,3.79,0,0,0-1.78-1l-.62-.24a19.17,19.17,0,0,1-2.7-1.42,6,6,0,0,1-1.86-1.53c-1.41-1.94.49-5.44.71-5.83a5.14,5.14,0,0,1,5.35-2.89,13.41,13.41,0,0,1,2.13.65,6.53,6.53,0,0,0,2.9.59c.39,0,.75,0,1.08,0,.74,0,1.06,0,1.21-.14a23,23,0,0,0-4.42-7.76A2.64,2.64,0,0,1,135.9,112Z"/><path class="cls-1" d="M154.77,89.74H87.26a12,12,0,0,0-12,12v47.05a12,12,0,0,0,12,12h67.51a12,12,0,0,0,12-12v-47A12,12,0,0,0,154.77,89.74Zm8.9,56.65a12,12,0,0,1-12,12H90.36a12,12,0,0,1-12-12V104.14a12,12,0,0,1,12-12h61.31a12,12,0,0,1,12,12Z"/><path d="M151.67,92.14H90.36a12,12,0,0,0-12,12v42.25a12,12,0,0,0,12,12h61.31a12,12,0,0,0,12-12V104.14A12,12,0,0,0,151.67,92.14ZM121,152.67a27.41,27.41,0,1,1,27.41-27.4A27.4,27.4,0,0,1,121,152.67Z"/><text class="cls-2" transform="translate(0.38 210.98)">MAPADORA</text></svg>